<svg width="20" height="20" viewBox="0 0 20 20" fill="none" xmlns="http://www.w3.org/2000/svg">
<circle opacity="0.8" cx="10" cy="10" r="10" fill="white"/>
<path d="M14.9678 7.95155C14.9622 7.53167 14.8835 7.11596 14.7351 6.72303C14.6065 6.39159 14.41 6.09059 14.1582 5.83925C13.9065 5.5879 13.605 5.39176 13.273 5.26333C12.8845 5.11773 12.474 5.039 12.0591 5.03049C11.5249 5.00665 11.3555 5 9.99944 5C8.64338 5 8.46957 5 7.93925 5.03049C7.52452 5.03906 7.11425 5.11779 6.7259 5.26333C6.39386 5.39167 6.0923 5.58778 5.84053 5.83914C5.58876 6.09049 5.39232 6.39154 5.26377 6.72303C5.11763 7.11062 5.03894 7.5203 5.0311 7.93436C5.00722 8.46823 5 8.63732 5 9.99113C5 11.3449 5 11.5179 5.0311 12.0479C5.03943 12.4626 5.11773 12.8717 5.26377 13.2603C5.39254 13.5917 5.58912 13.8927 5.84098 14.1439C6.09283 14.3952 6.39442 14.5912 6.72645 14.7195C7.11375 14.8709 7.52409 14.9553 7.93981 14.969C8.47457 14.9928 8.64394 15 10 15C11.3561 15 11.5299 15 12.0602 14.969C12.4751 14.9608 12.8856 14.8822 13.2741 14.7367C13.606 14.6081 13.9074 14.4119 14.1592 14.1606C14.4109 13.9093 14.6074 13.6083 14.7362 13.277C14.8823 12.8889 14.9606 12.4798 14.9689 12.0645C14.9928 11.5312 15 11.3621 15 10.0078C14.9989 8.65395 14.9989 8.48209 14.9678 7.95155ZM9.99611 12.5513C8.57785 12.5513 7.42892 11.4043 7.42892 9.98836C7.42892 8.57246 8.57785 7.42544 9.99611 7.42544C10.677 7.42544 11.33 7.69546 11.8114 8.1761C12.2928 8.65674 12.5633 9.30863 12.5633 9.98836C12.5633 10.6681 12.2928 11.32 11.8114 11.8006C11.33 12.2813 10.677 12.5513 9.99611 12.5513ZM12.6655 7.92826C12.5868 7.92834 12.509 7.91293 12.4363 7.88292C12.3637 7.85291 12.2976 7.80889 12.242 7.75338C12.1864 7.69788 12.1423 7.63196 12.1123 7.55942C12.0822 7.48688 12.0668 7.40914 12.0669 7.33064C12.0669 7.25219 12.0823 7.17451 12.1124 7.10204C12.1425 7.02957 12.1865 6.96371 12.2421 6.90825C12.2977 6.85278 12.3636 6.80878 12.4362 6.77876C12.5088 6.74874 12.5866 6.73329 12.6652 6.73329C12.7438 6.73329 12.8216 6.74874 12.8942 6.77876C12.9668 6.80878 13.0327 6.85278 13.0883 6.90825C13.1439 6.96371 13.1879 7.02957 13.218 7.10204C13.2481 7.17451 13.2635 7.25219 13.2635 7.33064C13.2635 7.66105 12.9959 7.92826 12.6655 7.92826Z" fill="black"/>
<path d="M9.99608 11.6529C10.9171 11.6529 11.6637 10.9075 11.6637 9.98806C11.6637 9.06861 10.9171 8.32324 9.99608 8.32324C9.0751 8.32324 8.32849 9.06861 8.32849 9.98806C8.32849 10.9075 9.0751 11.6529 9.99608 11.6529Z" fill="black"/>
</svg>
